<svg xmlns="http://www.w3.org/2000/svg" width="34" height="34" viewBox="0 0 34 34">
  <g id="awb" transform="translate(1.585)">
    <rect id="icon" width="34" height="34" transform="translate(-1.585)" fill="none"/>
    <path id="Path_6583" data-name="Path 6583" d="M5.567,29.67H2.122A1.857,1.857,0,0,1,0,27.563q0-5.035,0-10.071A1.84,1.84,0,0,1,2.093,15.41L5.405,15.4a1.209,1.209,0,0,0,.162-.04v-.552q0-5.739,0-11.477A3.108,3.108,0,0,1,7.829.154,4,4,0,0,1,8.9.011C12.968,0,17.036.008,21.1,0a1.2,1.2,0,0,1,.921.387q4.193,4.211,8.4,8.4a1.261,1.261,0,0,1,.4.962q-.011,10.456-.006,20.911a3.149,3.149,0,0,1-3.292,3.325q-9.344.018-18.689,0A3.134,3.134,0,0,1,5.57,30.7c0-.329,0-.657,0-1.027Zm1.269-.08v.9a1.928,1.928,0,0,0,2.149,2.16H27.4a1.949,1.949,0,0,0,2.153-2.167V10.066c-1.874,0-3.686,0-5.5,0a3.145,3.145,0,0,1-3.314-3.295c-.006-1.664,0-3.326,0-4.99V1.252H9A1.9,1.9,0,0,0,6.838,3.389q0,5.737,0,11.476c0,.159.015.317.024.495h.646q6.191,0,12.383,0a1.831,1.831,0,0,1,2.069,2.061q0,5.058,0,10.116a1.816,1.816,0,0,1-2.068,2.052H6.837Zm4.2-12.958H2.148c-.726,0-.876.15-.876.878v9.98c0,.727.151.878.877.878H19.841c.753,0,.9-.149.9-.9V17.532c0-.753-.148-.9-.9-.9h-8.8ZM21.965,2.271c0,1.571-.024,3.11.008,4.648A1.866,1.866,0,0,0,23.94,8.794c1.133.007,2.265,0,3.4,0h1.141L21.965,2.27Z"/>
    <path id="Path_6584" data-name="Path 6584" d="M4.89,23.413l-.312,1.124H3.551L4.89,20.158h1.3l1.358,4.379H6.481l-.338-1.124ZM6,22.672l-.273-.929c-.077-.26-.156-.584-.221-.845H5.492c-.065.26-.129.592-.2.845l-.26.929H6Z"/>
    <path id="Path_6585" data-name="Path 6585" d="M9.105,24.537,8.066,20.158H9.125l.332,1.807c.1.52.189,1.085.26,1.527H9.73c.071-.474.175-1,.286-1.54l.37-1.793h1.053L11.789,22c.1.513.169.981.234,1.469h.013c.065-.488.162-1,.253-1.52l.357-1.793h1.007l-1.13,4.379H11.45l-.37-1.884c-.085-.442-.156-.851-.208-1.352h-.013c-.077.494-.149.91-.253,1.352l-.416,1.884H9.1Z"/>
    <path id="Path_6586" data-name="Path 6586" d="M14.815,20.217a7.9,7.9,0,0,1,1.28-.091,2.421,2.421,0,0,1,1.294.247.954.954,0,0,1,.526.858.983.983,0,0,1-.721.935v.013a1.1,1.1,0,0,1,.871,1.078,1.165,1.165,0,0,1-.455.929,2.766,2.766,0,0,1-1.722.4,7.622,7.622,0,0,1-1.072-.065v-4.3Zm.981,1.676h.325c.52,0,.8-.214.8-.54s-.253-.507-.7-.507a2.853,2.853,0,0,0-.422.025v1.02Zm0,1.942a3.056,3.056,0,0,0,.384.013c.449,0,.845-.169.845-.63s-.4-.617-.891-.617H15.8v1.234Z"/>
  </g>
</svg>
