<svg data-name="Component 9 – 1" xmlns="http://www.w3.org/2000/svg" width="30" height="30" viewBox="0 0 30 30">
    <defs>
        <clipPath id="kq84f2mvka">
            <path data-name="Rectangle 978" transform="translate(27 225)" style="fill:#fff;stroke:#707070" d="M0 0h30v30H0z"/>
        </clipPath>
    </defs>
    <g data-name="Mask Group 6" transform="translate(-27 -225)" style="clip-path:url(#kq84f2mvka)">
        <g data-name="Layer 1">
            <path data-name="Path 12254" d="M27.212 13.953H20.717a3.837 3.837 0 0 0-3.965 3.956v2.682a3.833 3.833 0 0 0 3.83 3.827c2.082.01 4.164 0 6.247 0h.385c-.017 1.3.187 2.6-.573 3.762a3.75 3.75 0 0 1-3.087 1.8c-.38.02-.763.01-1.144.01H4.03a3.738 3.738 0 0 1-3.662-2.244A3.8 3.8 0 0 1 .021 26.2q-.039-7.015-.01-14.03a3.787 3.787 0 0 1 3.724-3.784c.969-.027 1.94-.009 2.91-.01h16.549a3.758 3.758 0 0 1 3.681 2.28 3.814 3.814 0 0 1 .323 1.288c.053.649.014 1.306.014 2.011z" style="fill:#ff9366" transform="translate(28.386 225)"/>
            <path data-name="Path 12255" d="M27.206 16.049v6.263c-.1.005-.208.014-.313.014h-6.147a1.753 1.753 0 0 1-1.9-1.888c0-.894-.009-1.788 0-2.681a1.7 1.7 0 0 1 1.648-1.7c2.223-.02 4.446-.006 6.708-.006zM21.3 20.575a1.388 1.388 0 1 0-1.4-1.381 1.392 1.392 0 0 0 1.4 1.381z" style="fill:#ff9366" transform="translate(28.386 225)"/>
            <path data-name="Path 12256" d="m4.791 6.969.316-.683 1.961-4.2a1.037 1.037 0 0 1 1.51-.559q4.351 2.023 8.7 4.055a1.055 1.055 0 0 1 .675 1.055c-.008.242-.089.349-.353.336-.446-.021-.893-.006-1.34-.006H4.791z" style="fill:#ff9366" transform="translate(28.386 225)"/>
            <path data-name="Path 12257" d="M19.343 6.946a2.539 2.539 0 0 0-1.637-2.708c-1.35-.605-2.684-1.245-4.024-1.871-.107-.05-.212-.105-.342-.17.27-.571.513-1.141.8-1.685a1.015 1.015 0 0 1 1.397-.387q2.1.971 4.2 1.954l4.406 2.056a1.082 1.082 0 0 1 .6 1.668c-.16.346-.31.7-.486 1.033a.357.357 0 0 1-.255.172c-1.47-.005-2.94-.023-4.41-.04-.084 0-.169-.015-.252-.022z" style="fill:#ff9366" transform="translate(28.386 225)"/>
        </g>
    </g>
</svg>
