<svg xmlns="http://www.w3.org/2000/svg" width="34" height="34" viewBox="0 0 34 34">
  <g id="Cancel_order" data-name="Cancel order" transform="translate(0 0.014)">
    <rect id="icon" width="34" height="34" transform="translate(0 -0.014)" fill="none"/>
    <path id="Path_6590" data-name="Path 6590" d="M33.935,6.751c-.051-.275-.1-.533-.163-.79A7.842,7.842,0,0,0,26.135,0c-.2,0-.409.007-.613.022A7.807,7.807,0,0,0,18.346,8.04c.013.35.059.7.105,1.076.023.181.046.366.067.555l.044.411H2.7a2.5,2.5,0,0,0-2.6,1.845,3.3,3.3,0,0,0-.1.84c0,5.969,0,12.038,0,17.907v.585a2.5,2.5,0,0,0,2.219,2.668.552.552,0,0,1,.139.044H21.506l.1-.021c.1-.02.192-.04.287-.064A2.5,2.5,0,0,0,23.841,31.6c.015-.188.016-.383.016-.548q0-6.339,0-12.679V15.459l.4.029c.239.017.475.039.706.062.462.043.9.086,1.331.086h.062a7.822,7.822,0,0,0,7.582-6.866,1.357,1.357,0,0,1,.054-.239c0-.01.006-.018.009-.028V7.1l-.066-.346ZM8.579,11.4h6.692v6.24l-.565-.344q-.288-.176-.571-.346c-.439-.267-.853-.516-1.271-.778a1.7,1.7,0,0,0-.9-.3,1.36,1.36,0,0,0-.3.034,2.871,2.871,0,0,0-.736.311c-.413.239-.817.489-1.245.755l-.537.333-.566.347V11.4ZM22.572,21.73v9.4c0,1.078-.456,1.538-1.525,1.538H2.8c-1.056,0-1.506-.454-1.506-1.517V12.865c0-1.031.46-1.49,1.491-1.491H7.267V13.58q0,1.716,0,3.431A1.622,1.622,0,0,0,8.849,18.73a1.78,1.78,0,0,0,.943-.3c.225-.139.454-.278.68-.415.327-.2.665-.4.986-.613a.852.852,0,0,1,.469-.155.889.889,0,0,1,.481.16c.322.209.658.412.982.609.229.139.457.279.685.421a1.751,1.751,0,0,0,.93.3,1.615,1.615,0,0,0,1.573-1.7c-.006-1.154,0-2.325,0-3.458,0-.477,0-.953,0-1.43v-.767h1.272c.276,0,.641,0,1.006.007a.7.7,0,0,1,.533.347,8.261,8.261,0,0,0,2.827,2.854.913.913,0,0,1,.35.736c.009,2.137.007,4.309.007,6.41Zm8.226-9.3A6.54,6.54,0,0,1,19.626,7.887a6.6,6.6,0,0,1,6.552-6.613h.031A6.539,6.539,0,0,1,30.8,12.433Z"/>
    <path id="Path_6591" data-name="Path 6591" d="M15.655,26.168a1,1,0,0,1-.489.164c-1.1.007-2.269.012-3.572.012q-1.45,0-2.9-.006a.638.638,0,0,1-.712-.642c0-.393.285-.637.745-.64h3.22l1.9,0c.462,0,.926,0,1.387,0a.6.6,0,0,1,.615.451.567.567,0,0,1-.192.658Z"/>
    <path id="Path_6592" data-name="Path 6592" d="M28.714,9.459a.662.662,0,0,1,.161.654.62.62,0,0,1-.48.427.741.741,0,0,1-.142.016.7.7,0,0,1-.5-.241L26.18,8.709s-1.3,1.311-1.6,1.613a.673.673,0,0,1-.483.234.687.687,0,0,1-.154-.018.625.625,0,0,1-.472-.426.677.677,0,0,1,.169-.665c.187-.2.391-.4.588-.592l.07-.069c.154-.15.309-.3.481-.459l.528-.5-.276-.27-.439-.427c-.308-.3-.6-.583-.888-.872a.656.656,0,0,1-.081-.985.6.6,0,0,1,.429-.192.81.81,0,0,1,.553.258c.3.294.588.587.894.9.135.137.675.681.675.681l.669-.675c.3-.3.588-.594.881-.884a.837.837,0,0,1,.57-.276.586.586,0,0,1,.431.2.661.661,0,0,1-.091.986c-.289.29-.581.577-.888.88l-.7.69.273.264c.154.15.307.295.457.438.33.313.645.609.938.924Z"/>
  </g>
</svg>
