<svg xmlns="http://www.w3.org/2000/svg" width="34" height="34" viewBox="0 0 34 34">
  <g id="Download_invoice" data-name="Download invoice" transform="translate(0.001 0.814)">
    <rect id="icon" width="34" height="34" transform="translate(-0.001 -0.814)" fill="none"/>
    <path id="Path_6618" data-name="Path 6618" d="M0,25.417a.769.769,0,0,1,.732-.348c1.107.011,2.213,0,3.32,0h.388c.007-.144.018-.262.019-.379q.065-9.328.128-18.654c0-.717.157-.867.883-.867q6.489,0,12.979.006a.454.454,0,0,0,.5-.336,7.819,7.819,0,1,1,8.564,10.686c-.564.1-1.139.115-1.762.175v.35q0,5.959,0,11.917a4.3,4.3,0,0,1-3.539,4.314,7.723,7.723,0,0,1-1.42.083q-8.149.009-16.3,0A4.349,4.349,0,0,1,.056,28.723C.043,28.66.018,28.6,0,28.539v-3.12Zm5.562-.344H17.4c.66,0,.783.128.785.8,0,.276,0,.553,0,.829a13.435,13.435,0,0,0,.047,1.822A3.223,3.223,0,0,0,24.636,28c.011-4.071,0-8.141.007-12.213,0-.213-.056-.3-.277-.351a7.646,7.646,0,0,1-4.592-3.156.459.459,0,0,0-.431-.224q-2.655.011-5.309,0c-.141,0-.323.015-.415-.062a.989.989,0,0,1-.331-.482.437.437,0,0,1,.328-.511,1.3,1.3,0,0,1,.423-.054q2.291-.005,4.58,0h.4A8.016,8.016,0,0,1,18.492,6.3H5.689c-.042,6.256-.085,12.49-.127,18.772ZM32.885,7.834a6.715,6.715,0,1,0-6.7,6.715,6.71,6.71,0,0,0,6.7-6.715ZM17.069,26.184H1.105c0,.581,0,1.143,0,1.7a3.226,3.226,0,0,0,3.383,3.374q6.819,0,13.638,0h.349a.764.764,0,0,0-.068-.114,4.356,4.356,0,0,1-1.339-3.311c.006-.542,0-1.082,0-1.652Z"/>
    <path id="Path_6619" data-name="Path 6619" d="M17.494,20.593h3.418a1.7,1.7,0,0,1,.363.023.507.507,0,0,1,.43.517.526.526,0,0,1-.438.547,1.188,1.188,0,0,1-.3.015H14a1.236,1.236,0,0,1-.264-.011.521.521,0,0,1-.458-.529.508.508,0,0,1,.436-.544,1.468,1.468,0,0,1,.33-.021q1.725,0,3.451,0Z"/>
    <path id="Path_6620" data-name="Path 6620" d="M17.477,15.782h3.551c.436,0,.682.2.68.547s-.248.542-.688.543q-3.534,0-7.068,0c-.257,0-.519-.035-.6-.3a.685.685,0,0,1,.043-.549.77.77,0,0,1,.538-.231c1.183-.02,2.367-.011,3.551-.011Z"/>
    <path id="Path_6621" data-name="Path 6621" d="M12.038,11.538a1.761,1.761,0,1,1-1.75-1.707A1.738,1.738,0,0,1,12.038,11.538Zm-1.771.6a.643.643,0,0,0,.678-.584.661.661,0,0,0-1.317-.032.624.624,0,0,0,.64.616Z"/>
    <path id="Path_6622" data-name="Path 6622" d="M12.038,16.326a1.761,1.761,0,1,1-1.75-1.7A1.738,1.738,0,0,1,12.038,16.326Zm-1.758.6a.631.631,0,0,0,.665-.593.646.646,0,0,0-.658-.606.632.632,0,0,0-.66.6.622.622,0,0,0,.652.6Z"/>
    <path id="Path_6623" data-name="Path 6623" d="M10.279,19.414a1.7,1.7,0,1,1,.021,3.409,1.706,1.706,0,1,1-.021-3.409Zm0,2.3a.631.631,0,0,0,.662-.6.65.65,0,0,0-.661-.6.635.635,0,0,0-.657.6.621.621,0,0,0,.655.6Z"/>
    <path id="Path_6624" data-name="Path 6624" d="M26.6,7.742l.847-.9c.31-.332.619-.666.93-1a.445.445,0,0,1,.658-.056.454.454,0,0,1-.019.65Q27.778,7.772,26.53,9.1a.448.448,0,0,1-.745-.016q-1.233-1.32-2.462-2.644a.441.441,0,1,1,.64-.594c.538.572,1.071,1.149,1.6,1.724a1.679,1.679,0,0,1,.1.137l.053-.023v-.2q0-2.187,0-4.374a.924.924,0,0,1,.047-.328.418.418,0,0,1,.476-.251.438.438,0,0,1,.35.449c0,.8,0,1.594,0,2.39V7.744Z"/>
    <path id="Path_6625" data-name="Path 6625" d="M26.179,10.727h3.49a.809.809,0,0,1,.244.027.434.434,0,0,1,.3.45.447.447,0,0,1-.378.389,1.1,1.1,0,0,1-.176.011h-6.98c-.337,0-.54-.156-.551-.419a.436.436,0,0,1,.438-.456c.39-.006.78,0,1.169,0h2.444Z"/>
  </g>
</svg>
