<svg xmlns="http://www.w3.org/2000/svg" width="34" height="34" viewBox="0 0 34 34">
  <g id="Download_label" data-name="Download label" transform="translate(0 3.969)">
    <rect id="icon" width="34" height="34" transform="translate(0 -3.969)" fill="none"/>
    <path id="Path_6598" data-name="Path 6598" d="M30.153,6.811c-1.321,0-6,0-9.28,0H20.12a6.077,6.077,0,0,1-.082,1H20.8c3.313,0,8.118,0,9.486,0A2.631,2.631,0,0,1,33,10.539q.006,5.893,0,11.784a2.627,2.627,0,0,1-2.738,2.738q-10.707,0-21.413,0A2.7,2.7,0,0,1,6.7,24.072c-1.668-1.951-3.343-3.9-5-5.857a2.993,2.993,0,0,1-.559-.966c-.421-1.281.094-2.253,1.117-3.2l1.1,1.109c-.037.058-.1.139-.142.226a2.033,2.033,0,0,0,.125,2.282,1.99,1.99,0,0,0,2.091.848,2.117,2.117,0,1,0-1.02-4.1c-.093.027-.241.046-.3,0-.408-.384-.8-.786-1.2-1.186,1.255-1.465,2.5-2.894,3.712-4.343A3.11,3.11,0,0,1,7.4,8.206a2.7,2.7,0,0,1,.71-.3,5.919,5.919,0,0,1-.1-1.016,3.408,3.408,0,0,0-.747.239,3.72,3.72,0,0,0-1.3.994l-1.7,1.993-2.052,2.4c-.1-.1-.182-.17-.26-.247-.329-.328-.654-.661-.988-.985a.5.5,0,0,0-.762-.051.514.514,0,0,0,.067.761c.091.1.187.189.282.283l1.031,1.007A5.09,5.09,0,0,0,0,15.965v.93A4.766,4.766,0,0,0,1.132,19.1c1.613,1.853,3.2,3.728,4.794,5.6A3.715,3.715,0,0,0,8.9,26.062q10.64-.008,21.28,0A3.638,3.638,0,0,0,34,22.219q0-5.775,0-11.552a3.647,3.647,0,0,0-3.846-3.856Zm-25.078,8.5a1.133,1.133,0,0,1,1.1,1.141A1.122,1.122,0,0,1,5.05,17.56a1.126,1.126,0,1,1,.025-2.251Z"/>
    <path id="Path_6599" data-name="Path 6599" d="M27.711,19.385a.513.513,0,0,1-.516.449H14.318a.5.5,0,0,1-.5-.5h0a.5.5,0,0,1,.5-.5l5.46,0c2.17,0,5.157,0,7.44,0a.5.5,0,0,1,.494.546Z"/>
    <path id="Path_6600" data-name="Path 6600" d="M27.714,13.536h0a.5.5,0,0,1-.5.5H20.272a.5.5,0,0,1-.5-.5h0a.5.5,0,0,1,.5-.5h6.944a.5.5,0,0,1,.5.5Z"/>
    <path id="Path_6601" data-name="Path 6601" d="M27.714,16.441h0a.5.5,0,0,1-.5.5c-1.164,0-2.846,0-3.821,0H20.273a.5.5,0,0,1-.5-.5h0a.5.5,0,0,1,.5-.5h6.944a.5.5,0,0,1,.5.5Z"/>
    <path id="Path_6602" data-name="Path 6602" d="M14.44,7.012l.736-.787c.269-.288.538-.58.809-.866a.388.388,0,0,1,.572-.049.394.394,0,0,1-.017.564Q15.462,7.037,14.377,8.2a.389.389,0,0,1-.647-.014q-1.071-1.148-2.14-2.3a.383.383,0,1,1,.557-.515q.7.746,1.395,1.5a1.422,1.422,0,0,1,.09.12l.046-.021V6.79q0-1.9,0-3.8a.786.786,0,0,1,.041-.286.363.363,0,0,1,.414-.219.381.381,0,0,1,.3.39c0,.693,0,1.385,0,2.078V7.014Z"/>
    <path id="Path_6603" data-name="Path 6603" d="M14.072,9.607h3.033a.692.692,0,0,1,.212.024.376.376,0,0,1,.26.391.389.389,0,0,1-.329.338.922.922,0,0,1-.154.008H11.029c-.293,0-.47-.137-.48-.365a.377.377,0,0,1,.381-.4c.338,0,.678,0,1.016,0H14.07Z"/>
    <path id="Path_6604" data-name="Path 6604" d="M14.066,0A6.815,6.815,0,0,0,7.259,6.808c0,.107,0,.215.008.321A6.745,6.745,0,0,0,7.4,8.206a6.819,6.819,0,0,0,6.663,5.409A6.929,6.929,0,0,0,20.8,7.8a6.8,6.8,0,0,0,.073-1v0A6.815,6.815,0,0,0,14.066,0Zm5.971,7.8a6.054,6.054,0,0,1-11.925.1,5.919,5.919,0,0,1-.1-1.016c0-.027,0-.055,0-.082a6.053,6.053,0,1,1,12.106,0v0A6.077,6.077,0,0,1,20.038,7.8Z"/>
  </g>
</svg>
