<svg xmlns="http://www.w3.org/2000/svg" width="34" height="34" viewBox="0 0 34 34">
  <g id="Generate_label" data-name="Generate label" transform="translate(0.002 3.915)">
    <rect id="icon" width="34" height="34" transform="translate(-0.002 -3.915)" fill="none"/>
    <path id="Path_6593" data-name="Path 6593" d="M0,16.075a5.084,5.084,0,0,1,1.585-2.683L.554,12.384c-.1-.093-.19-.186-.281-.282a.513.513,0,0,1-.067-.761.5.5,0,0,1,.762.051c.334.323.659.656.988.984.077.077.158.152.26.248l2.052-2.4,1.7-1.993A3.543,3.543,0,0,1,8.7,6.928c1.494-.024,2.988-.01,4.482-.006.475,0,.743.369.547.734a.559.559,0,0,1-.566.262c-1.395,0-2.788.008-4.183,0a2.868,2.868,0,0,0-2.349,1.08c-1.216,1.449-2.457,2.878-3.712,4.343.4.4.791.8,1.2,1.185.054.051.2.032.3,0a2.117,2.117,0,1,1,1.02,4.1,1.993,1.993,0,0,1-2.091-.848A2.033,2.033,0,0,1,3.215,15.5c.046-.088.106-.168.142-.226l-1.1-1.108c-1.022.944-1.538,1.917-1.118,3.2a3.021,3.021,0,0,0,.559.966c1.656,1.962,3.331,3.906,5,5.857a2.7,2.7,0,0,0,2.152.992q10.705,0,21.412,0A2.627,2.627,0,0,0,33,22.434q0-5.893,0-11.785a2.631,2.631,0,0,0-2.716-2.731c-2.125-.009-4.249,0-6.374,0-.11,0-.251.038-.326-.016a1.04,1.04,0,0,1-.4-.416.4.4,0,0,1,.3-.514,1.383,1.383,0,0,1,.424-.047q3.121,0,6.241,0A3.647,3.647,0,0,1,34,10.777V22.33a3.636,3.636,0,0,1-3.825,3.839q-10.64,0-21.28,0a3.714,3.714,0,0,1-2.969-1.361c-1.594-1.869-3.181-3.743-4.794-5.6A4.766,4.766,0,0,1,0,17.006v-.93Zm6.177.484a1.125,1.125,0,1,0-1.126,1.11,1.121,1.121,0,0,0,1.127-1.11Z"/>
    <path id="Path_6594" data-name="Path 6594" d="M25.881,2.5a2.491,2.491,0,0,1-.689,1.652c-.39.407-.792.8-1.191,1.2q-5.009,5.009-10.017,10.02a5.139,5.139,0,0,1-1.873,1.217q-1.35.5-2.69,1.033a.87.87,0,0,1-1.18-1.176c.368-.947.737-1.893,1.1-2.843a4.558,4.558,0,0,1,1.06-1.625Q15.985,6.4,21.567.813A2.423,2.423,0,0,1,24.049.1a2.353,2.353,0,0,1,1.738,1.786,5.669,5.669,0,0,1,.093.621ZM22.358,4.277l-9.787,9.789.589.589,9.8-9.776-.6-.6Zm-10.6,9,9.8-9.8-.563-.567-9.8,9.793.564.569ZM21.7,2.1,23.755,4.17c.251-.248.537-.495.78-.779a1.462,1.462,0,0,0-2.056-2.058c-.284.243-.534.526-.779.771ZM12.338,15.428l-1.9-1.892-1.2,3.1Z"/>
    <path id="Path_6595" data-name="Path 6595" d="M20.209,19.943H13.172a2.434,2.434,0,0,1-.332-.009.451.451,0,0,1-.42-.438.445.445,0,0,1,.337-.505,1.4,1.4,0,0,1,.393-.041q7.069,0,14.138,0a1.435,1.435,0,0,1,.393.039.485.485,0,0,1-.073.944,2.475,2.475,0,0,1-.365.01H20.209Z"/>
    <path id="Path_6596" data-name="Path 6596" d="M23.424,14.144c-1.305,0-2.611,0-3.916,0-.13,0-.307.013-.38-.06-.133-.134-.295-.34-.276-.5s.232-.3.385-.421c.064-.049.193-.015.292-.015h7.8c.1,0,.23-.033.292.016.152.12.362.269.38.426s-.146.36-.28.493c-.074.073-.251.057-.381.058-1.305,0-2.611,0-3.916,0Z"/>
    <path id="Path_6597" data-name="Path 6597" d="M23.4,17.048q-1.924,0-3.848,0c-.131,0-.3.023-.385-.047a.909.909,0,0,1-.325-.476.41.41,0,0,1,.389-.454,2.037,2.037,0,0,1,.331-.015h7.731a2.036,2.036,0,0,1,.331.014.449.449,0,0,1,.406.451.443.443,0,0,1-.351.494,1.565,1.565,0,0,1-.394.034q-1.941,0-3.882,0Z"/>
  </g>
</svg>
