<svg xmlns="http://www.w3.org/2000/svg" width="34" height="34" viewBox="0 0 34 34">
  <g id="Generate_invoice" data-name="Generate invoice" transform="translate(3.569)">
    <rect id="icon" width="34" height="34" transform="translate(-3.569)" fill="none"/>
    <path id="Path_6605" data-name="Path 6605" d="M26.857,31.566A2.269,2.269,0,0,1,24.4,34H2.514A2.285,2.285,0,0,1,0,31.5V2.754C0,1.149.38.584,1.845.009L1.866,0H5.879l.028.017a.632.632,0,0,1,.375.788c-.122.382-.45.433-.755.431-1.056-.007-2.1,0-3.163,0A1.031,1.031,0,0,0,1.235,2.365V31.634a1.035,1.035,0,0,0,1.159,1.135H24.482a1.035,1.035,0,0,0,1.143-1.149q0-1.87,0-3.743V25.949c0-.031,0-.064-.006-.1a.489.489,0,0,1,.045-.326c.145-.213.307-.414.5-.438.259-.033.541.257.595.316a.616.616,0,0,1,.095.431V25.9c0,1.907,0,3.815,0,5.671Z"/>
    <path id="Path_6606" data-name="Path 6606" d="M26.859,3.624c0,.193,0,.388,0,.581V6.174q0,8.608,0,17.216a1.77,1.77,0,0,1-.047.488.549.549,0,0,1-.556.427.511.511,0,0,1-.075,0,.567.567,0,0,1-.543-.526,2.377,2.377,0,0,1-.011-.322V2.466c0-.677-.268-1.083-.8-1.2a1.814,1.814,0,0,0-.42-.03H8.037c-.052,0-.1,0-.152,0a.7.7,0,0,1-.774-.4.682.682,0,0,1,.3-.808L7.447,0H24.989l.021.009.162.059a3.038,3.038,0,0,1,.365.144,2.218,2.218,0,0,1,1.317,2.081c.01.445.007.9,0,1.333Z"/>
    <path id="Path_6607" data-name="Path 6607" d="M17.254,25.164V22.436H4.788c0,.849,0,1.682,0,2.514,0,.248.208.213.368.213H9.543a3.275,3.275,0,0,1,.329.007.457.457,0,0,1,.439.455.45.45,0,0,1-.353.492,1.194,1.194,0,0,1-.325.033q-2.259,0-4.516,0A1.184,1.184,0,0,1,3.8,24.826V14.871a1.167,1.167,0,0,1,1.323-1.312H21.738a1.168,1.168,0,0,1,1.323,1.313v9.955a1.184,1.184,0,0,1-1.32,1.324q-4.862,0-9.725,0a1.243,1.243,0,0,1-.358-.037.484.484,0,0,1,.075-.94,2.1,2.1,0,0,1,.329-.01h5.2Zm0-6.884H4.808v3.132H17.257Zm0-3.731H5.252c-.066,0-.132,0-.2,0-.2-.011-.277.081-.27.277.009.263,0,.527,0,.79v1.637H17.256v-2.7Zm4.794,6.868V18.282H18.29v3.135Zm.017,1.029H18.3v2.718h3.518c.176,0,.257-.084.256-.263,0-.811,0-1.621,0-2.454ZM18.3,14.551v2.7h3.764c0-.835.006-1.646-.01-2.456a.33.33,0,0,0-.226-.231c-1.173-.015-2.347-.01-3.528-.01Z"/>
    <path id="Path_6608" data-name="Path 6608" d="M17.359,28.728a1.287,1.287,0,0,1,1.088.578c.149.191.278.395.428.584a.277.277,0,0,0,.492,0c.143-.181.268-.375.407-.558a1.278,1.278,0,0,1,2.186,0,5.4,5.4,0,0,0,.348.478.922.922,0,0,0,.37.236c.3.1.472.306.422.57a.514.514,0,0,1-.585.412,1.359,1.359,0,0,1-.982-.595c-.144-.193-.278-.395-.429-.583a.271.271,0,0,0-.471,0c-.145.178-.268.374-.408.558a1.279,1.279,0,0,1-2.2,0c-.132-.175-.251-.36-.386-.532a.287.287,0,0,0-.515,0c-.135.173-.256.356-.386.532a1.392,1.392,0,0,1-1,.622.51.51,0,0,1-.584-.411c-.044-.275.12-.473.419-.573a.994.994,0,0,0,.39-.262c.148-.16.252-.359.39-.529a1.253,1.253,0,0,1,1.014-.524Z"/>
    <path id="Path_6609" data-name="Path 6609" d="M6.9,4.378c0-.352,0-.7,0-1.054A.493.493,0,1,1,7.882,3.3c.014.89.015,1.779.018,2.669a.5.5,0,0,1-.37.525.512.512,0,0,1-.6-.227,14.3,14.3,0,0,0-.965-1.275c0,.311,0,.622,0,.933,0,.4-.2.637-.518.623s-.468-.227-.468-.629c0-.846,0-1.692,0-2.537,0-.266.065-.483.344-.567a.515.515,0,0,1,.612.267c.3.441.607.879.912,1.318L6.9,4.376Z"/>
    <path id="Path_6610" data-name="Path 6610" d="M15.084,4.676a1.883,1.883,0,1,1-1.875-1.894A1.887,1.887,0,0,1,15.084,4.676Zm-.991-.021a.9.9,0,0,0-.913-.881.9.9,0,0,0,.03,1.792A.9.9,0,0,0,14.093,4.655Z"/>
    <path id="Path_6611" data-name="Path 6611" d="M19.585,2.723a9.1,9.1,0,0,1,.947.338.492.492,0,1,1-.47.858.9.9,0,0,0-1.047.052.848.848,0,0,0-.315.911.838.838,0,0,0,1.361.475.5.5,0,0,1,.733-.025.494.494,0,0,1-.066.754,1.617,1.617,0,0,1-1.676.395A1.8,1.8,0,0,1,17.731,5.1a1.961,1.961,0,0,1,1.855-2.374Z"/>
    <path id="Path_6612" data-name="Path 6612" d="M20.285,8.612c.976,0,1.953-.014,2.929.014a.683.683,0,0,1,.486.293.593.593,0,0,1-.077.5.535.535,0,0,1-.4.173q-2.93.017-5.859,0a.482.482,0,0,1-.527-.505c.006-.294.2-.475.551-.477.965-.006,1.931,0,2.9,0Z"/>
    <path id="Path_6613" data-name="Path 6613" d="M22.612,5.159v.393c.216,0,.422-.01.626,0a.509.509,0,0,1,.527.514.5.5,0,0,1-.535.466c-.361.009-.724.01-1.085,0A.484.484,0,0,1,21.614,6q-.013-1.333,0-2.665A.487.487,0,0,1,22.15,2.8c.361-.012.724-.011,1.085,0a.5.5,0,0,1,.53.472.506.506,0,0,1-.532.506c-.2.01-.392,0-.611,0v.393c.182,0,.365-.011.546,0a.49.49,0,1,1-.012.979c-.173.01-.347,0-.545,0Z"/>
    <path id="Path_6614" data-name="Path 6614" d="M9.833,4.648c.177-.522.325-.969.478-1.412.127-.368.364-.513.66-.414s.393.368.274.733c-.278.842-.564,1.68-.84,2.524a.571.571,0,0,1-1.124.012c-.29-.849-.588-1.7-.876-2.546-.125-.366-.022-.631.272-.729s.529.043.661.416c.157.443.31.886.494,1.416Z"/>
    <path id="Path_6615" data-name="Path 6615" d="M4.074,4.7c0,.439.006.878,0,1.315a.492.492,0,1,1-.981.026q-.017-1.365,0-2.73a.5.5,0,0,1,.514-.524.487.487,0,0,1,.467.53c.007.46,0,.921,0,1.382Z"/>
    <path id="Path_6616" data-name="Path 6616" d="M15.889,4.673c0-.428,0-.854,0-1.282.006-.38.2-.607.5-.6s.482.225.483.616q.006,1.265,0,2.531c0,.395-.175.612-.478.62s-.5-.226-.508-.631,0-.833,0-1.249Z"/>
    <path id="Path_6617" data-name="Path 6617" d="M21.985,11.787c-.385,0-.768,0-1.153,0s-.607-.214-.6-.514.231-.471.595-.472q1.169,0,2.338,0c.365,0,.585.178.6.471s-.224.509-.595.515c-.395.006-.79,0-1.185,0Z"/>
  </g>
</svg>
