<svg xmlns="http://www.w3.org/2000/svg" xmlns:xlink="http://www.w3.org/1999/xlink" width="909.619" height="731.232" viewBox="0 0 909.619 731.232">
  <defs>
    <linearGradient id="linear-gradient" x2="1" y2="1" gradientUnits="objectBoundingBox">
      <stop offset="0" stop-color="#ffbd69"/>
      <stop offset="1" stop-color="#ff6363"/>
    </linearGradient>
  </defs>
  <g id="seller" transform="translate(-67.382 -173.327)">
    <path id="Delivery_Time" data-name="Delivery Time" d="M53.3-22.781c0-22.236-32.155-19.838-32.155-30.3,0-7.63,13.625-9.374,20.819-9.374a22.54,22.54,0,0,1,3.052.218c1.853-1.962,2.725-8.611,2.725-10.682a2.376,2.376,0,0,0-.109-.654,23.27,23.27,0,0,0-4.8-.545c-26.378,0-37.169,12.1-37.169,21.146,0,19.4,32.809,17.44,32.809,30.738,0,7.194-8.066,13.189-17.331,13.189-.763,0-3.161-.109-4.142-1.09-2.725-2.725-2.725-15.587-2.725-15.587-4.8,0-10.246,2.725-10.573,3.815A111.682,111.682,0,0,0,3.27-10.246c0,6,.218,12.208.981,12.971,0,0,2.834.872,11.99.872C37.932,3.6,53.3-8.393,53.3-22.781ZM92.65-34.662c0,7.3-9.592,13.843-14.17,13.952-.436,0-.436-.327-.436-1.526,0-8.611,5.341-15.587,11.227-15.587A3.076,3.076,0,0,1,92.65-34.662Zm-4.8,37.169C98.427,2.507,102.133,0,102.133,0c2.071-2.616,2.725-7.194,2.725-9.81,0-.654-.109-2.071-.327-2.071a.381.381,0,0,0-.218.109C100.934-9.7,95.92-8.829,91.233-8.829c-5.668,0-7.957-2.289-7.957-2.943,13.952-4.8,22.127-14.715,22.127-23.98,0-9.7-8.611-11.881-13.734-11.881-17.658,0-26.378,12.971-26.378,27.141C65.291-7.739,72.594,2.507,87.854,2.507Zm43.6-47.524c0-8.175.327-26.705.545-28.34,0-.218-1.744-.436-2.725-.436-3.924,0-10.246,2.4-10.246,3.924,0,1.2.436,3.924.436,14.933,0,17.331-.436,28.34-.436,39.458,0,5.341,0,9.7.109,11.445.654,6.758,2.943,9.592,3.379,9.592,4.578,0,12.1-4.578,12.1-5.886a17.582,17.582,0,0,1-3.161-8.72c-.218-1.744-.218-5.123-.218-9.265C131.236-28.667,131.454-36.842,131.454-45.017Zm29.757,0c0-8.175.327-26.705.545-28.34,0-.218-1.744-.436-2.725-.436-3.924,0-10.246,2.4-10.246,3.924,0,1.2.436,3.924.436,14.933,0,17.331-.436,28.34-.436,39.458,0,5.341,0,9.7.109,11.445.654,6.758,2.943,9.592,3.379,9.592,4.578,0,12.1-4.578,12.1-5.886a17.582,17.582,0,0,1-3.161-8.72c-.218-1.744-.218-5.123-.218-9.265C160.993-28.667,161.211-36.842,161.211-45.017Zm42.51,10.355c0,7.3-9.592,13.843-14.17,13.952-.436,0-.436-.327-.436-1.526,0-8.611,5.341-15.587,11.227-15.587A3.076,3.076,0,0,1,203.721-34.662Zm-4.8,37.169C209.5,2.507,213.2,0,213.2,0c2.071-2.616,2.725-7.194,2.725-9.81,0-.654-.109-2.071-.327-2.071a.381.381,0,0,0-.218.109c-3.379,2.071-8.393,2.943-13.08,2.943-5.668,0-7.957-2.289-7.957-2.943,13.952-4.8,22.127-14.715,22.127-23.98,0-9.7-8.611-11.881-13.734-11.881-17.658,0-26.378,12.971-26.378,27.141C176.362-7.739,183.665,2.507,198.925,2.507Zm61.258-45.671a8.428,8.428,0,0,0-.872-4.142c-10.137,0-16.241,8.72-16.241,8.72-.218.218-.327.218-.436.218-.218,0-.218-2.289-.218-2.507,0-2.834.218-6.976.327-7.957,0-.327-1.308-.545-2.289-.545-3.924,0-8.393,1.526-9.919,3.052-.327.327-.436,2.943-.436,6.867,0,6.322.218,16.023.218,24.743,0,7.085-.109,13.625-.763,17.222,0,.327.436.327.872.327,2.834,0,9.374-.436,11.99-2.943.327-.327.327-7.194.327-13.407v-9.592A14.052,14.052,0,0,1,256.8-33.463a11.448,11.448,0,0,1,1.417.218S260.183-35.861,260.183-43.164Z" transform="translate(382 899)" fill="url(#linear-gradient)"/>
    <g id="Group_5450" data-name="Group 5450">
      <path id="Path_5852" data-name="Path 5852" d="M61.4,59.179Q65.059,72.8,74.2,78.454t24.093,5.651a114.224,114.224,0,0,0,21.6-2.327,130.488,130.488,0,0,0,23.6-6.979,106.468,106.468,0,0,1,8.144,20.6,97.573,97.573,0,0,1,3.822,24.926A172.7,172.7,0,0,1,94.969,131.3q-23.929,0-41.044-6.645T26.008,106.2A74.034,74.034,0,0,1,10.056,78.125,117.379,117.379,0,0,1,4.909,42.564,116.017,116.017,0,0,1,10.221,7,81.676,81.676,0,0,1,26.175-21.913,75.224,75.224,0,0,1,52.757-41.355Q68.709-48.5,89.98-48.5q17.614,0,31.407,5.981a68.38,68.38,0,0,1,23.43,16.449A71.457,71.457,0,0,1,159.607-.811a96.87,96.87,0,0,1,5.147,32.07,140.666,140.666,0,0,1-.832,16.118q-.832,7.145-1.5,11.8ZM87.99-6.294A26.926,26.926,0,0,0,69.711.354Q62.067,7,60.738,20.957h53.175q-.665-11.63-7.15-19.441T87.99-6.294Zm198.4-12.3q13.958,5.651,25.092,11.465A75.273,75.273,0,0,1,330.6,6.835a55.669,55.669,0,0,1,12.3,19.608q4.32,11.465,4.32,27.752a78.741,78.741,0,0,1-6.149,31.736,65.924,65.924,0,0,1-18.113,24.257q-11.965,10.136-29.412,15.62t-40.047,5.484a177.953,177.953,0,0,1-36.391-3.323,227.808,227.808,0,0,1-34.061-10.3A188.453,188.453,0,0,1,187.7,92.911q3.323-13.127,7.972-26.753,30.578,13.291,53.175,13.291,16.954,0,26.421-5.147t9.481-17.785a19.525,19.525,0,0,0-2-9.136,20.123,20.123,0,0,0-5.317-6.481,33.492,33.492,0,0,0-7.477-4.487q-4.155-1.828-8.477-3.49l-18.611-6.979a119.765,119.765,0,0,1-21.769-10.3A69.711,69.711,0,0,1,204.313,1.513a59.439,59.439,0,0,1-10.8-18.778q-3.82-10.635-3.82-24.927,0-17.614,5.981-31.24a65.071,65.071,0,0,1,16.778-23.1,71.668,71.668,0,0,1,26.089-14.29,113.589,113.589,0,0,1,34.231-4.819,158.506,158.506,0,0,1,32.736,3.323,269.454,269.454,0,0,1,33.733,9.641,169.939,169.939,0,0,1-4.819,23.43,147.784,147.784,0,0,1-8.807,24.1q-8.641-3.656-20.273-7.644t-28.914-3.987a49.935,49.935,0,0,0-10.136,1,29.647,29.647,0,0,0-8.641,3.157A16.752,16.752,0,0,0,251.5-56.64a17.917,17.917,0,0,0-2.327,9.472q0,9.641,6.314,14.29a63.514,63.514,0,0,0,14.956,7.972ZM484.805,63.83H435.617v63.145q-8.641,1.329-15.62,1.993t-12.629.664q-5.651,0-12.629-.664t-15.288-1.993V-44.512a112.013,112.013,0,0,1,14.457-2.327q7.145-.664,13.792-.664,6.315,0,13.624.664a101.159,101.159,0,0,1,14.29,2.327V13.978H484.8V-44.514a112.019,112.019,0,0,1,14.457-2.327q7.145-.664,13.792-.664,6.314,0,13.624.664a101.169,101.169,0,0,1,14.29,2.327V126.975q-8.641,1.329-15.62,1.993t-12.629.66q-5.651,0-12.629-.664T484.8,126.971Zm85.079-21.6a118.8,118.8,0,0,1,5.484-37.054,78.784,78.784,0,0,1,16.286-28.747,71.887,71.887,0,0,1,26.752-18.447Q634.358-48.5,655.3-48.5q21.269,0,37.222,6.481a71.889,71.889,0,0,1,26.753,18.445A78.782,78.782,0,0,1,735.557,5.175a118.8,118.8,0,0,1,5.484,37.06,114.564,114.564,0,0,1-5.484,36.391,77.538,77.538,0,0,1-16.286,28.249,71.162,71.162,0,0,1-26.752,18.107Q676.566,131.3,655.3,131.3q-20.937,0-36.89-6.315a71.16,71.16,0,0,1-26.753-18.113,77.535,77.535,0,0,1-16.285-28.253,114.559,114.559,0,0,1-5.482-36.387Zm114.326,0q0-21.269-7.145-32.571T655.3-1.645q-14.623,0-21.6,11.3t-6.979,32.577q0,20.937,6.979,32.237t21.6,11.3q14.624,0,21.769-11.3T684.21,42.228Zm140.578,1.993a32.9,32.9,0,0,0,4.155.5q2.493.166,4.154.167,11.632,0,19.11-5.816T859.684,19.3q0-11.965-7.477-18.445t-18.442-6.48h-3.822A41.549,41.549,0,0,0,824.8-5.3ZM769.958-43.848q15.287-2.321,31.406-3.482t31.075-1.164a157.334,157.334,0,0,1,29.911,2.826,73.983,73.983,0,0,1,26.251,10.3,55.431,55.431,0,0,1,18.778,20.606q7.145,13.127,7.145,34.069,0,18.944-6.481,31.9a58.157,58.157,0,0,1-17.116,20.937A68.267,68.267,0,0,1,866.833,83.61a108.819,108.819,0,0,1-27.418,3.49q-5.651,0-9.641-.332a29.276,29.276,0,0,1-4.985-.665V126.98a134.994,134.994,0,0,1-15.453,2.161q-6.813.5-12.13.5-5.651,0-12.13-.5a137.213,137.213,0,0,1-15.116-2.164Z" transform="translate(62.479 621.733)" fill="url(#linear-gradient)"/>
      <path id="Path_6382" data-name="Path 6382" d="M887.684,392.076V670.514a8.339,8.339,0,0,1-8.339,8.339H836.014l-13.946,25.09V551.267h0v-115.9l-.037.025L742.79,487.051h0l-31.919-20.812-2.21-1.43L678.89,445.4l-15.456-10.077v166.7l47.432,28.413V522.85h0l31.912,20.8h0l31.853-20.767V678.853H600.9a8.342,8.342,0,0,1-8.339-8.339V392.076a8.339,8.339,0,0,1,8.339-8.339H879.341a8.336,8.336,0,0,1,8.343,8.339Z" transform="translate(-0.408 -210.41)" fill="url(#linear-gradient)"/>
    </g>
  </g>
</svg>
