<svg data-name="Component 12 – 1" xmlns="http://www.w3.org/2000/svg" width="30" height="30" viewBox="0 0 30 30">
    <defs>
        <clipPath id="1zg21oc27a">
            <path data-name="Rectangle 980" style="fill:#fff;stroke:#707070" d="M0 0h30v30H0z"/>
        </clipPath>
    </defs>
    <g data-name="Mask Group 7" style="clip-path:url(#1zg21oc27a)">
        <g data-name="Layer 1">
            <g data-name="Low Stocl">
                <path data-name="Path 12258" d="M11.521 21.813v.264c-.377-.093-.724-.178-1.07-.265l-6.391-1.6q-1.946-.488-3.893-.97C.038 19.208 0 19.146 0 19.017V3.944l1.632.446 5.794 1.593c1.29.354 2.579.711 3.871 1.056a.256.256 0 0 1 .226.3q-.007 5.757 0 11.514v2.958z" transform="translate(0 3.781)" style="fill:#ff9366"/>
                <path data-name="Path 12259" d="M23.9 22.438a6.093 6.093 0 1 1 6.1-6.081 6.076 6.076 0 0 1-6.1 6.081zm2.765-4.945-.028-.05h-1.238c-.3 0-.3 0-.3-.3 0-1.493 0-2.986.007-4.479 0-.193-.037-.266-.251-.26-.633.017-1.266.014-1.9 0-.193 0-.251.049-.249.243.01 1.053.007 2.106.008 3.159v1.46c0 .137-.048.185-.188.182-.36-.008-.72 0-1.08 0h-.284l-.021.062 2.755 2.657 2.773-2.669z" transform="translate(0 3.781)" style="fill:#ff9366"/>
                <path data-name="Path 12260" d="M24.366 3.96V8.6a7.581 7.581 0 0 0-7.217 4.021 7.561 7.561 0 0 0 .473 8.264l-4.742 1.193c-.006-.11-.014-.187-.014-.264v-7.2q0-3.6-.01-7.214a.313.313 0 0 1 .276-.369c1.787-.48 3.569-.974 5.353-1.464l5.6-1.541c.082-.023.167-.039.28-.065z" transform="translate(0 3.781)" style="fill:#ff9366"/>
                <path data-name="Path 12261" d="M1.161 2.74c.372-.095.743-.191 1.115-.285L6 1.523 11.44.161a1.109 1.109 0 0 0 .192-.055 2.109 2.109 0 0 1 1.458.083q2.577.644 5.152 1.295 2.421.607 4.843 1.211a1.414 1.414 0 0 1 .188.086l-1.622.446-6.8 1.864c-.834.229-1.667.464-2.5.69a.548.548 0 0 1-.273.006Q10 5.223 7.917 4.648l-5.834-1.6-.923-.254V2.74z" transform="translate(0 3.781)" style="fill:#ff9366"/>
            </g>
        </g>
    </g>
</svg>
