<svg xmlns="http://www.w3.org/2000/svg" width="24" height="24" viewBox="0 0 24 24">
    <defs>
        <linearGradient id="84eoyvp1fa" x1=".5" x2=".5" y2="1" gradientUnits="objectBoundingBox">
            <stop offset="0" stop-color="#ffb368"/>
            <stop offset="1" stop-color="#fc6861"/>
        </linearGradient>
    </defs>
    <path data-name="Rectangle 998" style="fill:none" d="M0 0h24v24H0z"/>
    <path data-name="Path 12274" d="M21.841.929H2.159C.846.929 0 1.593 0 2.629v18.75c0 1.032.844 1.694 2.157 1.694h19.682c1.312 0 2.157-.662 2.157-1.694Q24 11.999 24 2.629c0-1.036-.846-1.7-2.159-1.7zM4.735 7.104a.982.982 0 0 1 .971.305c.412.414.823.831 1.262 1.273 1.1-1.106 2.17-2.172 3.232-3.242a1.027 1.027 0 0 1 1.017-.347 1 1 0 0 1 .509 1.658c-.3.334-.633.642-.951.96Q9.3 9.189 7.82 10.666a1.04 1.04 0 0 1-1.705-.009C5.5 10.043 4.877 9.435 4.273 8.81a1 1 0 0 1 .461-1.705zm6.918 7.777q-1.951 1.961-3.91 3.91a1 1 0 0 1-1.548-.005q-.95-.939-1.888-1.889a1.005 1.005 0 1 1 1.411-1.426c.211.2.417.412.622.621s.39.41.645.679c.191-.215.336-.395.5-.557q1.374-1.381 2.756-2.755a1.006 1.006 0 1 1 1.417 1.421zm7.284 2.256h-3.8a1.012 1.012 0 1 1 .011-2.011h3.801a1.01 1.01 0 1 1-.011 2.011zm.014-8.051h-3.834a1.009 1.009 0 1 1-.015-2.01q1.933-.007 3.865 0a1.009 1.009 0 1 1-.016 2.01z"/>
    <path data-name="Path 12274" d="M21.841.929H2.159C.846.929 0 1.593 0 2.629v18.75c0 1.032.844 1.694 2.157 1.694h19.682c1.312 0 2.157-.662 2.157-1.694Q24 11.999 24 2.629c0-1.036-.846-1.7-2.159-1.7zM4.735 7.104a.982.982 0 0 1 .971.305c.412.414.823.831 1.262 1.273 1.1-1.106 2.17-2.172 3.232-3.242a1.027 1.027 0 0 1 1.017-.347 1 1 0 0 1 .509 1.658c-.3.334-.633.642-.951.96Q9.3 9.189 7.82 10.666a1.04 1.04 0 0 1-1.705-.009C5.5 10.043 4.877 9.435 4.273 8.81a1 1 0 0 1 .461-1.705zm6.918 7.777q-1.951 1.961-3.91 3.91a1 1 0 0 1-1.548-.005q-.95-.939-1.888-1.889a1.005 1.005 0 1 1 1.411-1.426c.211.2.417.412.622.621s.39.41.645.679c.191-.215.336-.395.5-.557q1.374-1.381 2.756-2.755a1.006 1.006 0 1 1 1.417 1.421zm7.284 2.256h-3.8a1.012 1.012 0 1 1 .011-2.011h3.801a1.01 1.01 0 1 1-.011 2.011zm.014-8.051h-3.834a1.009 1.009 0 1 1-.015-2.01q1.933-.007 3.865 0a1.009 1.009 0 1 1-.016 2.01z"/>
    <path data-name="Path 12274" d="M21.841 0H2.159C.846 0 0 .664 0 1.7v18.75c0 1.032.844 1.694 2.157 1.694h19.682c1.312 0 2.157-.662 2.157-1.694Q24 11.07 24 1.7C24 .664 23.154 0 21.841 0zM4.735 6.175a.982.982 0 0 1 .971.305c.412.414.823.831 1.262 1.273 1.1-1.106 2.17-2.172 3.232-3.242a1.027 1.027 0 0 1 1.017-.347 1 1 0 0 1 .509 1.658c-.3.334-.633.642-.951.96Q9.3 8.26 7.82 9.737a1.04 1.04 0 0 1-1.705-.009C5.5 9.114 4.877 8.506 4.273 7.881a1 1 0 0 1 .461-1.705zm6.918 7.777q-1.951 1.961-3.91 3.91a1 1 0 0 1-1.548-.005q-.95-.939-1.888-1.889a1.005 1.005 0 1 1 1.411-1.426c.211.2.417.412.622.621s.39.41.645.679c.191-.215.336-.395.5-.557q1.374-1.381 2.756-2.755a1.006 1.006 0 1 1 1.417 1.421zm7.284 2.256h-3.8a1.012 1.012 0 1 1 .011-2.011h3.801a1.01 1.01 0 1 1-.011 2.011zm.014-8.051h-3.834a1.009 1.009 0 1 1-.015-2.01q1.933-.007 3.865 0a1.009 1.009 0 1 1-.016 2.01z" transform="translate(0 .929)" style="fill:url(#84eoyvp1fa)"/>
</svg>
