<svg xmlns="http://www.w3.org/2000/svg" width="24" height="22.141" viewBox="0 0 24 22.141">
    <path data-name="Path 12244" d="M21.841 0H2.159C.846 0 0 .664 0 1.7v18.75c0 1.032.844 1.695 2.157 1.695h19.682c1.312 0 2.157-.662 2.157-1.695V1.7C24 .664 23.154 0 21.841 0zm.137 20.541H2.013V1.6h19.964v18.942z" style="fill:#ffb5b2"/>
    <path data-name="Path 12245" d="M11.726 6c-.3.332-.629.638-.945.954L7.844 9.891a1.034 1.034 0 0 1-1.694-.009c-.611-.611-1.229-1.214-1.829-1.835a.993.993 0 0 1 .459-1.7.976.976 0 0 1 .965.3c.41.412.818.826 1.254 1.265 1.1-1.1 2.155-2.158 3.212-3.222a1.019 1.019 0 0 1 1.01-.344A.988.988 0 0 1 11.726 6z" style="fill:#ffb5b2"/>
    <path data-name="Path 12246" d="M11.653 14.08q-1.938 1.948-3.886 3.886a.994.994 0 0 1-1.538-.006q-.944-.933-1.877-1.877a1 1 0 1 1 1.4-1.417q.314.3.618.618c.2.2.387.407.64.674.189-.214.333-.392.493-.553q1.365-1.373 2.738-2.738a1 1 0 1 1 1.409 1.413z" style="fill:#ffb5b2"/>
    <path data-name="Path 12247" d="M20 7.331a1.009 1.009 0 0 1-1.093.991h-3.81a1 1 0 1 1-.016-2q1.92-.008 3.84 0A1 1 0 0 1 20 7.33z" style="fill:#ffb5b2"/>
    <path data-name="Path 12248" d="M20 15.312a1.009 1.009 0 0 1-1.106 1.01h-3.778a1.005 1.005 0 1 1 .01-2H18.9a1.011 1.011 0 0 1 1.1.989z" style="fill:#ffb5b2"/>
</svg>
