<svg xmlns="http://www.w3.org/2000/svg" width="34" height="34" viewBox="0 0 34 34">
  <g id="pick_up_request" data-name="pick up request" transform="translate(0.054)">
    <rect id="icon" width="34" height="34" transform="translate(-0.054)" fill="none"/>
    <path id="Path_6587" data-name="Path 6587" d="M5.5,31.853c0,.546,0,1.009,0,1.473-.006.4-.2.607-.554.605s-.557-.213-.552-.613c.008-.882.034-1.763.051-2.644,0-.138,0-.276,0-.433-.342-.048-.67-.1-1-.14a.849.849,0,0,1-.711-.524c-.82-1.675-1.644-3.348-2.5-5a1.536,1.536,0,0,1-.113-1.36,7.843,7.843,0,0,1,.845-1.739c.7-.935,1.485-1.8,2.265-2.674.479-.534,1.014-1.018,1.534-1.533-.042-.076-.071-.136-.105-.191a.642.642,0,0,1,.106-.933c.645-.65,1.3-1.293,1.934-1.93a16.6,16.6,0,0,1-.8-1.476,1.108,1.108,0,0,0-.685-.676,2.315,2.315,0,0,1-1-3.353c.051-.091.106-.177.172-.286a1.985,1.985,0,0,1-.494-1.535c.021-.73,0-1.462,0-2.193A3.927,3.927,0,0,1,6.6.668,9.555,9.555,0,0,1,12.07.2a4.218,4.218,0,0,1,3.376,3.354c.028.111.056.224.09.363h1.978a2.8,2.8,0,0,1,2.67,1.725,1.848,1.848,0,0,1-.618,2.432,4.627,4.627,0,0,1-2.274.784c-.368.044-.737.062-1.134.093-.117,2.059-.29,4.116-1.786,5.79a11.737,11.737,0,0,0,1.445,1.4,5,5,0,0,0,1.433.44V12.993c0-.543.167-.716.7-.716H33.256c.515,0,.636.127.636.633V27.6c0,.708-.122.83-.825.83h-3.6c-.022.162-.034.309-.062.451a2.147,2.147,0,0,1-1.994,1.7,6.714,6.714,0,0,1-.934.07c-1.381,0-2.761-.029-4.141,0-.782.019-1.562.14-2.362.217,0,.894,0,1.7,0,2.516a.544.544,0,0,1-.728.58.551.551,0,0,1-.381-.6c0-.58,0-1.16,0-1.74V31.2c-.669.237-1.292.477-1.928.678-1.963.624-3.919,1.266-5.9,1.84a4.873,4.873,0,0,1-5.364-1.7c-.035-.04-.08-.074-.177-.162ZM18.39,13.406V26.187c.151-.04.272-.077.4-.1a12.267,12.267,0,0,1,2-.417c1.365-.067,2.736-.034,4.1-.017a1.6,1.6,0,0,1,1.557,1.338c.021.1.045.2.068.31h6.305V13.414H28.387v.3c0,1.171.006,2.344,0,3.515,0,.531-.371.742-.836.5-.536-.273-1.083-.529-1.614-.812a.507.507,0,0,0-.543,0c-.541.29-1.1.554-1.644.828-.532.264-.917.029-.926-.571-.007-.511,0-1.021,0-1.531V13.408H18.391ZM5.6,18c-.378.388-.732.738-1.07,1.1-.831.9-1.7,1.775-2.464,2.733a8.708,8.708,0,0,0-.909,1.78.525.525,0,0,0,.025.393q1.187,2.456,2.4,4.9a.449.449,0,0,0,.273.212A3.212,3.212,0,0,0,7.546,27.2a.6.6,0,0,0-.048-.64c-.466-.733-.916-1.477-1.359-2.225a.557.557,0,0,1,.381-.9c.317-.046.484.152.627.4q1.009,1.744,2.027,3.486a2.151,2.151,0,0,0,2.7,1.02c1.636-.547,3.269-1.1,4.909-1.633a.418.418,0,0,0,.355-.479c-.013-2.448-.006-4.894-.01-7.342,0-.38.114-.87-.076-1.11s-.7-.215-1.061-.327c-.2-.062-.287.008-.368.188-.215.474-.449.94-.679,1.408-.292.593-.749.634-1.141.1-.306-.416-.611-.832-.955-1.3-.248.632-.476,1.2-.693,1.765a.53.53,0,0,1-.508.4.536.536,0,0,1-.536-.365c-.067-.148-.128-.3-.19-.448-.188-.453-.374-.906-.58-1.406-.536.684-1.027,1.313-1.522,1.94-.34.43-.6.455-1.02.106L5.6,18Zm19.756,9.316c-.1-.436-.244-.555-.657-.557-1.113,0-2.226-.019-3.338.007a7.691,7.691,0,0,0-1.439.185,17,17,0,0,0-1.669.473c-2.011.662-4.015,1.35-6.028,2a3.246,3.246,0,0,1-3.59-1.088c-.057-.069-.117-.134-.195-.223a4.219,4.219,0,0,1-2.783,2.04c.257.348.467.662.705.953A5.372,5.372,0,0,0,8.177,32.59a3.875,3.875,0,0,0,2.921.034c2.3-.708,4.585-1.463,6.866-2.229a13.946,13.946,0,0,1,4.619-.866c1.379.016,2.76.027,4.138,0a3.785,3.785,0,0,0,1.137-.259.815.815,0,0,0,.512-.785c-.133,0-.247,0-.362,0q-2-.027-4-.058c-.417-.007-.64-.214-.632-.571s.224-.535.628-.54c.439,0,.88,0,1.348,0ZM14.778,6.6l-.088-.01c-.1.127-.189.258-.289.381a13.489,13.489,0,0,1-.864,1.041,3,3,0,0,1-2.275.932c-1.831-.033-3.663-.015-5.493,0a.724.724,0,0,0-.518.19,1.444,1.444,0,0,0-.162,1.391.952.952,0,0,0,.92.628.8.8,0,0,1,.738.615,7.138,7.138,0,0,0,.718,1.493,3.859,3.859,0,0,0,3.59,1.78,3.733,3.733,0,0,0,3.41-2.5,9.554,9.554,0,0,0,.519-4.41c-.04-.512-.136-1.02-.206-1.529ZM8.268,1.341a5.425,5.425,0,0,0-2.05.793A2.4,2.4,0,0,0,5.055,3.982c-.063,1.133-.048,2.27-.03,3.4a.549.549,0,0,0,.357.4,2.489,2.489,0,0,0,2.382-.6c.272-.315.54-.635.788-.969a4.813,4.813,0,0,1,4.366-2.3c.483.034.972,0,1.572,0A9.2,9.2,0,0,0,13.833,2.6a3.051,3.051,0,0,0-2.911-1.36A2.758,2.758,0,0,0,8.5,3.438a6.581,6.581,0,0,0-.161,1.027.572.572,0,0,1-.581.567.517.517,0,0,1-.526-.6A4.559,4.559,0,0,1,7.423,3.2c.235-.643.56-1.25.843-1.862ZM8.71,7.819c.878,0,1.643-.041,2.4.012a2.075,2.075,0,0,0,1.779-.762c.589-.659,1.148-1.344,1.734-2.035-.613,0-1.238.036-1.856-.008a3.118,3.118,0,0,0-2.531,1c-.525.531-.975,1.137-1.528,1.791Zm18.546,5.594h-3.3v2.971c.474-.236.907-.477,1.364-.664a.834.834,0,0,1,.578,0c.456.189.889.432,1.362.669V13.414ZM16.122,7.847A10.05,10.05,0,0,0,17.5,7.7a6.8,6.8,0,0,0,1.413-.525.632.632,0,0,0,.334-.826,1.882,1.882,0,0,0-1.324-1.262,2.789,2.789,0,0,0-2.117.559.279.279,0,0,0-.065.235c.116.634.244,1.267.382,1.967ZM8.232,18.733c.509-.641,1-1.261,1.5-1.891-.785-.519-1.528-1.013-2.275-1.5-.063-.041-.2-.07-.238-.034-.479.462-.946.938-1.433,1.425l2.445,2Zm5.519-3.075c-.1.294-.191.517-.26.745-.028.091-.058.223-.015.286.272.4.565.783.878,1.209.18-.342.341-.634.486-.933a.229.229,0,0,0-.024-.208c-.338-.361-.686-.71-1.065-1.1Zm-1.29.278-1.584.26L11.7,17.97l.757-2.033Z"/>
    <path id="Path_6588" data-name="Path 6588" d="M21.7,23.413c.358,0,.718-.006,1.076,0a.555.555,0,1,1,0,1.108q-1.074.011-2.151,0a.556.556,0,1,1,0-1.11c.358-.007.718,0,1.076,0Z"/>
    <path id="Path_6589" data-name="Path 6589" d="M21.146,22.853c-.2,0-.393.012-.589,0a.522.522,0,0,1-.52-.571.512.512,0,0,1,.524-.531c.392-.016.785-.016,1.177,0a.512.512,0,0,1,.52.535.524.524,0,0,1-.524.567c-.195.013-.392,0-.589,0Z"/>
  </g>
</svg>
