<svg xmlns="http://www.w3.org/2000/svg" width="24" height="24" viewBox="0 0 24 24">
    <defs>
        <linearGradient id="p82ujsduna" x1=".5" x2=".5" y2="1" gradientUnits="objectBoundingBox">
            <stop offset="0" stop-color="#ffb368"/>
            <stop offset="1" stop-color="#fc6861"/>
        </linearGradient>
    </defs>
    <path data-name="Rectangle 1010" style="fill:none" d="M0 0h24v24H0z"/>
    <path data-name="Path 12281" d="m11.455 24-.367-.167Q5.652 21.354.215 18.878A.3.3 0 0 1 0 18.554Q.008 12.128 0 5.7v-.251l1.29.587q4.991 2.278 9.984 4.551a.269.269 0 0 1 .192.286q-.006 6.462 0 12.924c0 .056-.006.112-.01.2z" transform="translate(.337)" style="fill:url(#p82ujsduna)"/>
    <path data-name="Path 12282" d="M16.372 8.635v2.71c0 .326.108.393.407.257.786-.357 1.569-.721 2.358-1.071a.382.382 0 0 0 .266-.407c-.012-.9-.009-1.795 0-2.692a.318.318 0 0 1 .125-.244c1.241-.576 2.488-1.14 3.733-1.706h.048c0 .078.012.164.012.248v12.775a.351.351 0 0 1-.237.383q-5.507 2.5-11 5.016c-.064.029-.132.05-.223.085v-.269q0-6.388-.006-12.775a.364.364 0 0 1 .26-.392c1.345-.6 2.685-1.218 4.027-1.829.065-.029.131-.054.23-.095z" transform="translate(.337)" style="fill:url(#p82ujsduna)"/>
    <path data-name="Path 12283" d="M.295 5.133C1 4.81 1.673 4.5 2.347 4.195c.726-.332 1.451-.666 2.183-.986a.488.488 0 0 1 .355-.009q5.519 2.5 11.032 5.022a1.827 1.827 0 0 1 .158.094l-1.527.7c-.9.409-1.791.822-2.693 1.221a.5.5 0 0 1-.36.007Q5.953 7.731.419 5.2C.39 5.188.362 5.171.295 5.134z" transform="translate(.337)" style="fill:url(#p82ujsduna)"/>
    <path data-name="Path 12284" d="M23.035 5.145c-1.264.576-2.492 1.139-3.725 1.691a.4.4 0 0 1-.29-.032Q13.995 4.52 8.974 2.226L7.823 1.7l.683-.311C9.5.935 10.489.477 11.486.035a.485.485 0 0 1 .358 0q5.515 2.5 11.024 5.022c.043.02.084.045.167.089z" transform="translate(.337)" style="fill:url(#p82ujsduna)"/>
    <path data-name="Path 12285" d="M5.207 2.893c.695-.317 1.364-.629 2.041-.925a.422.422 0 0 1 .294.043q3.013 1.369 6.022 2.746l4.888 2.23c.074.033.146.07.248.118-.081.045-.139.082-.2.11-.578.264-1.152.534-1.736.784a.5.5 0 0 1-.358.007Q10.89 5.5 5.381 2.984c-.051-.024-.1-.052-.175-.092z" transform="translate(.337)" style="fill:url(#p82ujsduna)"/>
    <path data-name="Path 12286" d="M16.767 11.172V8.556a.22.22 0 0 1 .108-.161c.692-.324 1.388-.64 2.124-.976v2.54c0 .077-.029.2-.082.224-.7.33-1.4.647-2.152.989z" transform="translate(.337)" style="fill:url(#p82ujsduna)"/>
</svg>
