<svg xmlns="http://www.w3.org/2000/svg" width="24" height="24" viewBox="0 0 24 24">
    <path data-name="Rectangle 975" style="fill:none" d="M0 0h24v24H0z"/>
    <path data-name="Path 12249" d="M23.272 12.344h.007V5.696a.74.74 0 0 0-.471-.711c-1.065-.48-2.145-.973-3.19-1.45l-1.892-.865C15.864 1.82 13.939.941 12.043.085a1.013 1.013 0 0 0-.41-.085.877.877 0 0 0-.351.069A354.956 354.956 0 0 0 7.51 1.775l-.2.092-2.11.963c-1.536.7-3.125 1.429-4.69 2.139a.754.754 0 0 0-.505.83 1.276 1.276 0 0 1 0 .167v1.953c0 3.357 0 6.829-.005 10.243a.869.869 0 0 0 .551.872q2.687 1.22 5.371 2.446t5.378 2.447a.866.866 0 0 0 .35.073.766.766 0 0 0 .314-.064 3641.62 3641.62 0 0 0 5.072-2.311c1.85-.844 3.763-1.717 5.646-2.572a.919.919 0 0 0 .595-.924 793.5 793.5 0 0 1-.006-4.62v-1.165zm-6.808-3.47a.231.231 0 0 1 .095-.178c.578-.274 1.162-.537 1.78-.819v2.234a.178.178 0 0 1-.088.131c-.58.27-1.163.532-1.786.816V8.873zm5.5 9.071h-.008c-2.815 1.275-5.672 2.579-8.436 3.84l-1.21.552v-1.37c0-3.243 0-6.6-.006-9.894v-.037l.025-.012c.89-.4 1.791-.81 2.662-1.207l.532-.243v1.769c0 .738.484.8.631.8a1.042 1.042 0 0 0 .429-.108l.741-.339c.466-.214.947-.435 1.424-.645a.819.819 0 0 0 .522-.821 71.915 71.915 0 0 1 0-1.609v-.747c.679-.305 1.366-.619 2.031-.923l.664-.3V17.912a.126.126 0 0 1 .001.033zM9.322 2.4a67.268 67.268 0 0 0 2.011-.934.68.68 0 0 1 .3-.082.8.8 0 0 1 .333.09 1922.74 1922.74 0 0 0 7.367 3.373l1.7.777-.2.09-.527.242c-.542.25-1.1.508-1.659.752a.176.176 0 0 1-.051.008c-3.126-1.418-6.3-2.866-9.375-4.27l.1-.046zm-1.687.77a.209.209 0 0 1 .051.015c1.786.81 3.6 1.637 5.355 2.438l4 1.823c-.288.133-.569.26-.854.382a.618.618 0 0 1-.058-.023c-1.65-.748-3.326-1.513-4.947-2.253L9.3 4.7 6.785 3.548c.288-.131.568-.258.849-.378zm3.334 16.8v2.37l-1.506-.687-1.145-.523a2817.823 2817.823 0 0 0-6.947-3.162.468.468 0 0 1-.058-.03.406.406 0 0 1 0-.05c.008-3.141.008-6.333.007-9.422v-1.83L4.7 8.18q3.135 1.431 6.271 2.86c-.002 2.977-.002 6.003-.002 8.929zm.672-10.07a.2.2 0 0 1-.03-.009 4338.153 4338.153 0 0 1-6.835-3.113l-1.345-.614-1.186-.542 2.066-.944c.078-.036.157-.07.236-.1a5.446 5.446 0 0 0 .553-.266.182.182 0 0 1 .094-.031.462.462 0 0 1 .173.053c2.72 1.248 5.488 2.511 8.164 3.732l1.075.49-.011.005c-1.017.465-1.978.903-2.954 1.339z" transform="translate(.36)" style="fill:#ffb5b2"/>
</svg>
