<svg id="profile" xmlns="http://www.w3.org/2000/svg" width="24" height="23.987" viewBox="0 0 24 23.987">
  <path id="Path_12250" data-name="Path 12250" d="M0,12.7V11.294c.014-.083.032-.165.043-.248.057-.433.09-.87.172-1.3a11.716,11.716,0,0,1,3.252-6.18A11.7,11.7,0,0,1,9.93.185c.452-.078.91-.124,1.364-.185H12.7c.068.014.136.03.2.04.654.1,1.319.156,1.961.31a12.006,12.006,0,0,1,8.919,13.889,11.659,11.659,0,0,1-3.658,6.569,11.721,11.721,0,0,1-9.782,3.066A11.46,11.46,0,0,1,4.1,21.019,11.744,11.744,0,0,1,.184,14.062C.105,13.611.061,13.154,0,12.7Zm9.163.477a5.051,5.051,0,1,1,6.084-8.048,4.871,4.871,0,0,1,1.762,3.328,5.036,5.036,0,0,1-2.159,4.709A8.355,8.355,0,0,1,20,18.892,10.57,10.57,0,1,0,3.578,5.6,10.443,10.443,0,0,0,4.01,18.877,8.189,8.189,0,0,1,5.874,15.4a8.331,8.331,0,0,1,3.29-2.226Zm3.025,9.412c.252-.021.7-.043,1.153-.1a10.287,10.287,0,0,0,4.879-1.941c.617-.451.608-.464.424-1.216a6.829,6.829,0,0,0-13.41.65.292.292,0,0,0,.1.225,10.7,10.7,0,0,0,6.856,2.38Zm-.2-9.963A3.641,3.641,0,1,0,8.352,8.964a3.653,3.653,0,0,0,3.634,3.662Z" fill="#ffb6b3"/>
</svg>
