<svg xmlns="http://www.w3.org/2000/svg" xmlns:xlink="http://www.w3.org/1999/xlink" width="24.014" height="24" viewBox="0 0 24.014 24">
  <defs>
    <linearGradient id="linear-gradient" x1="0.5" x2="0.5" y2="1" gradientUnits="objectBoundingBox">
      <stop offset="0" stop-color="#ffb368"/>
      <stop offset="1" stop-color="#fc6861"/>
    </linearGradient>
  </defs>
  <g id="profileSelected" transform="translate(0.004)">
    <path id="Rectangle_976" data-name="Rectangle 976" d="M0,0H24V24H0Z" fill="none"/>
    <path id="Path_12311" data-name="Path 12311" d="M366.992,870.14a4.041,4.041,0,0,1-4.058,4.058,4.138,4.138,0,0,1-4.058-4.17,4.067,4.067,0,0,1,4.17-4.058,3.974,3.974,0,0,1,3.946,4.17Z" transform="translate(-350.868 -861.5)" fill="url(#linear-gradient)"/>
    <path id="Path_12312" data-name="Path 12312" d="M371.951,881.3a9.312,9.312,0,0,0-5.861-6.425,5.782,5.782,0,0,0,2.48-5.3,5.374,5.374,0,0,0-2.029-3.719c-.113-.113-.338-.225-.451-.338a5.626,5.626,0,0,0-7.89,1.465,5.726,5.726,0,0,0,1.465,7.89,9.4,9.4,0,0,0-3.719,2.48A10.352,10.352,0,0,0,353.8,881.3a11.742,11.742,0,0,1-.451-14.991,2.988,2.988,0,0,1,.564-.676A11.946,11.946,0,1,1,371.951,881.3Z" transform="translate(-350.868 -861.5)" fill="url(#linear-gradient)"/>
    <path id="Path_12313" data-name="Path 12313" d="M369.922,883.215a11.838,11.838,0,0,1-5.523,2.142c-.564,0-1.014.113-1.353.113a12.321,12.321,0,0,1-7.777-2.705c-.113-.113-.113-.113-.113-.225a7.7,7.7,0,0,1,5.861-6.425,7.592,7.592,0,0,1,9.242,5.748c.341.788.341.788-.337,1.352Z" transform="translate(-350.868 -861.5)" fill="url(#linear-gradient)"/>
  </g>
</svg>
