<svg data-name="Component 11 – 1" xmlns="http://www.w3.org/2000/svg" width="30" height="30" viewBox="0 0 30 30">
    <defs>
        <clipPath id="6bsi8yc17a">
            <path data-name="Rectangle 981" transform="translate(27 380)" style="fill:#fff;stroke:#707070" d="M0 0h30v30H0z"/>
        </clipPath>
    </defs>
    <g data-name="Mask Group 9" transform="translate(-27 -380)" style="clip-path:url(#6bsi8yc17a)">
        <g data-name="Layer 1">
            <g data-name="out of Stock">
                <path data-name="Path 12264" d="M13.089 28.578c-.56-.245-1.074-.467-1.585-.693q-5.216-2.313-10.433-4.622A1.6 1.6 0 0 1 0 21.707V6.89c0-.047.009-.095.02-.2.134.05.252.086.365.137q6.174 2.734 12.347 5.463a.518.518 0 0 1 .365.558q-.016 7.661-.007 15.322z" style="fill:#ff9366" transform="translate(27 380.117)"/>
                <path data-name="Path 12265" d="M30 22.834a6.921 6.921 0 1 1-6.851-6.9 6.92 6.92 0 0 1 6.851 6.9zm-8-.007c-.1.1-.162.175-.23.243-.5.5-1.006 1-1.5 1.505a.775.775 0 0 0-.039 1.125.784.784 0 0 0 1.127-.044c.158-.147.308-.3.46-.457.418-.422.834-.846 1.283-1.3.117.138.189.236.274.321.482.486.962.974 1.453 1.45a.767.767 0 1 0 1.084-1.084c-.105-.115-.219-.222-.33-.332l-1.454-1.445c.157-.125.289-.212.4-.321.47-.463.943-.925 1.4-1.4a.751.751 0 0 0 .01-1.1.764.764 0 0 0-1.1.018c-.107.1-.206.2-.308.3l-1.436 1.44c-.106-.1-.194-.178-.277-.261q-.727-.724-1.453-1.45a.768.768 0 1 0-1.1 1.065c.56.577 1.141 1.133 1.737 1.723z" style="fill:#ff9366" transform="translate(27 380.117)"/>
                <path data-name="Path 12266" d="M14.622 21.929v-.394c0-2.908 0-5.816-.006-8.723a.458.458 0 0 1 .325-.5q6.193-2.727 12.376-5.475c.106-.047.215-.088.356-.145v9.023a8.325 8.325 0 0 0-8.245-.479 8.442 8.442 0 0 0-4.806 6.695z" style="fill:#ff9366" transform="translate(27 380.117)"/>
                <path data-name="Path 12267" d="m26.565 5.474-.616.285q-5.856 2.6-11.71 5.195a.85.85 0 0 1-.771 0c-1.683-.762-3.374-1.5-5.062-2.254-.1-.046-.2-.1-.357-.174.153-.075.256-.128.361-.175l12.005-5.326a.7.7 0 0 1 .637 0c1.8.811 3.616 1.608 5.513 2.448z" style="fill:#ff9366" transform="translate(27 380.117)"/>
                <path data-name="Path 12268" d="m18.786 2.065-4.768 2.117q-3.8 1.684-7.6 3.371a.671.671 0 0 1-.609 0C4.377 6.909 2.938 6.276 1.5 5.639c-.1-.042-.187-.094-.335-.169 1.1-.488 2.145-.954 3.192-1.418l8.72-3.867a1.705 1.705 0 0 1 1.46-.038q2.055.913 4.114 1.82a1.112 1.112 0 0 1 .136.1z" style="fill:#ff9366" transform="translate(27 380.117)"/>
                <path data-name="Path 12269" d="m16.266 27.856-1.624.718v-4.828a8.876 8.876 0 0 0 1.624 4.11z" style="fill:#ff9366" transform="translate(27 380.117)"/>
            </g>
        </g>
    </g>
</svg>
