<svg xmlns="http://www.w3.org/2000/svg" xmlns:xlink="http://www.w3.org/1999/xlink" width="536.942" height="753.997" viewBox="0 0 536.942 753.997">
  <defs>
    <filter id="Delivery_Time" x="0" y="613.655" width="536.942" height="140.342" filterUnits="userSpaceOnUse">
      <feOffset dy="2.586" input="SourceAlpha"/>
      <feGaussianBlur stdDeviation="4.31" result="blur"/>
      <feFlood flood-opacity="0.161"/>
      <feComposite operator="in" in2="blur"/>
      <feComposite in="SourceGraphic"/>
    </filter>
    <filter id="multivendor" x="1.499" y="0" width="532.959" height="576.065" filterUnits="userSpaceOnUse">
      <feOffset dy="2.593" input="SourceAlpha"/>
      <feGaussianBlur stdDeviation="4.322" result="blur-2"/>
      <feFlood flood-opacity="0.161"/>
      <feComposite operator="in" in2="blur-2"/>
      <feComposite in="SourceGraphic"/>
    </filter>
  </defs>
  <g id="splashlogo" transform="translate(-182.018 75.484)">
    <g transform="matrix(1, 0, 0, 1, 182.02, -75.48)" filter="url(#Delivery_Time)">
      <path id="Delivery_Time-2" data-name="Delivery Time" d="M58.68-25.08c0-24.48-35.4-21.84-35.4-33.36,0-8.4,15-10.32,22.92-10.32a24.814,24.814,0,0,1,3.36.24c2.04-2.16,3-9.48,3-11.76a2.616,2.616,0,0,0-.12-.72,25.618,25.618,0,0,0-5.28-.6C18.12-81.6,6.24-68.28,6.24-58.32c0,21.36,36.12,19.2,36.12,33.84,0,7.92-8.88,14.52-19.08,14.52-.84,0-3.48-.12-4.56-1.2-3-3-3-17.16-3-17.16-5.28,0-11.28,3-11.64,4.2A122.953,122.953,0,0,0,3.6-11.28C3.6-4.68,3.84,2.16,4.68,3c0,0,3.12.96,13.2.96C41.76,3.96,58.68-9.24,58.68-25.08ZM102-38.16c0,8.04-10.56,15.24-15.6,15.36-.48,0-.48-.36-.48-1.68,0-9.48,5.88-17.16,12.36-17.16C100.08-41.64,102-40.68,102-38.16ZM96.72,2.76C108.36,2.76,112.44,0,112.44,0c2.28-2.88,3-7.92,3-10.8,0-.72-.12-2.28-.36-2.28a.419.419,0,0,0-.24.12c-3.72,2.28-9.24,3.24-14.4,3.24-6.24,0-8.76-2.52-8.76-3.24,15.36-5.28,24.36-16.2,24.36-26.4,0-10.68-9.48-13.08-15.12-13.08-19.44,0-29.04,14.28-29.04,29.88C71.88-8.52,79.92,2.76,96.72,2.76Zm48-52.32c0-9,.36-29.4.6-31.2,0-.24-1.92-.48-3-.48-4.32,0-11.28,2.64-11.28,4.32,0,1.32.48,4.32.48,16.44,0,19.08-.48,31.2-.48,43.44,0,5.88,0,10.68.12,12.6.72,7.44,3.24,10.56,3.72,10.56,5.04,0,13.32-5.04,13.32-6.48a19.356,19.356,0,0,1-3.48-9.6c-.24-1.92-.24-5.64-.24-10.2C144.48-31.56,144.72-40.56,144.72-49.56Zm32.76,0c0-9,.36-29.4.6-31.2,0-.24-1.92-.48-3-.48-4.32,0-11.28,2.64-11.28,4.32,0,1.32.48,4.32.48,16.44,0,19.08-.48,31.2-.48,43.44,0,5.88,0,10.68.12,12.6.72,7.44,3.24,10.56,3.72,10.56,5.04,0,13.32-5.04,13.32-6.48a19.356,19.356,0,0,1-3.48-9.6c-.24-1.92-.24-5.64-.24-10.2C177.24-31.56,177.48-40.56,177.48-49.56Zm46.8,11.4c0,8.04-10.56,15.24-15.6,15.36-.48,0-.48-.36-.48-1.68,0-9.48,5.88-17.16,12.36-17.16C222.36-41.64,224.28-40.68,224.28-38.16ZM219,2.76C230.64,2.76,234.72,0,234.72,0c2.28-2.88,3-7.92,3-10.8,0-.72-.12-2.28-.36-2.28a.419.419,0,0,0-.24.12c-3.72,2.28-9.24,3.24-14.4,3.24-6.24,0-8.76-2.52-8.76-3.24,15.36-5.28,24.36-16.2,24.36-26.4,0-10.68-9.48-13.08-15.12-13.08-19.44,0-29.04,14.28-29.04,29.88C194.16-8.52,202.2,2.76,219,2.76Zm67.44-50.28a9.279,9.279,0,0,0-.96-4.56c-11.16,0-17.88,9.6-17.88,9.6-.24.24-.36.24-.48.24-.24,0-.24-2.52-.24-2.76,0-3.12.24-7.68.36-8.76,0-.36-1.44-.6-2.52-.6-4.32,0-9.24,1.68-10.92,3.36-.36.36-.48,3.24-.48,7.56,0,6.96.24,17.64.24,27.24,0,7.8-.12,15-.84,18.96,0,.36.48.36.96.36,3.12,0,10.32-.48,13.2-3.24.36-.36.36-7.92.36-14.76V-25.44a15.47,15.47,0,0,1,15.48-11.4,12.605,12.605,0,0,1,1.56.24S286.44-39.48,286.44-47.52Zm82.2,20.64c1.56,7.44,9.12,34.2,10.8,34.2,6.84,0,15.12-5.04,15.12-6.12,0,0-.72-1.32-.84-1.44-11.76-20.04-21.96-83.04-21.96-83.04-6.72,0-14.16,3.6-14.16,4.32,0,1.44,1.2,7.8,1.08,7.8-1.2,0-8.52,1.32-9.24,1.92-.6.72-6.12,15.48-11.16,30.12-5.76.24-9.96.36-9.96.48,0,4.08,3.84,10.8,5.64,12.36-4.32,11.76-8.52,24.96-8.52,27.96,0,.48,6.24,2.04,12.72,2.04a15.524,15.524,0,0,0,2.88-.12c.72-7.8,3.48-17.88,7.2-30.12.72-.24,7.68-.48,13.8-.48C364.56-27,366.96-27,368.64-26.88Zm-7.68-33.36c.24,1.32,2.28,10.44,4.8,21-.12-.24-6.12-.24-13.44-.24,1.2-4.2,6.48-18,7.8-20.64.24-.36.48-.48.6-.48C360.96-60.6,360.96-60.24,360.96-60.24ZM421.32,2.04c6.96,0,32.4-6.12,32.4-29.88S430.68-52.56,421.8-52.56c0-.36.12-5.28.12-5.64a5.094,5.094,0,0,0-2.52-.36c-4.44,0-9.72,2.4-11.4,4.08.24,2.52.36,7.44.36,13.68,0,15.6-.6,39.48-.6,55.8,0,7.2.12,12.96.48,15.84,0,.36.96.36,1.8.36,3.24,0,9.96-.96,12.24-3.36-.48-3-.96-17.88-.96-24ZM439.8-27.6c0,11.4-9.72,16.32-18.36,16.32,0-1.56-.12-3.6-.12-6,0-9.36.36-23.04.36-23.28C430.44-40.56,439.8-38.04,439.8-27.6ZM482.28,2.04c6.96,0,32.4-6.12,32.4-29.88s-23.04-24.72-31.92-24.72c0-.36.12-5.28.12-5.64a5.094,5.094,0,0,0-2.52-.36c-4.44,0-9.72,2.4-11.4,4.08.24,2.52.36,7.44.36,13.68,0,15.6-.6,39.48-.6,55.8,0,7.2.12,12.96.48,15.84,0,.36.96.36,1.8.36,3.24,0,9.96-.96,12.24-3.36-.48-3-.96-17.88-.96-24ZM500.76-27.6c0,11.4-9.72,16.32-18.36,16.32,0-1.56-.12-3.6-.12-6,0-9.36.36-23.04.36-23.28C491.4-40.56,500.76-38.04,500.76-27.6Z" transform="translate(9.33 707.28)" fill="#fff"/>
    </g>
    <g transform="matrix(1, 0, 0, 1, 182.02, -75.48)" filter="url(#multivendor)">
      <path id="multivendor-2" data-name="multivendor" d="M1099.584,398.059V876.435a14.326,14.326,0,0,1-14.326,14.326h-74.443l-23.96,43.106v-262.3h-.007V472.452l-.064.043L850.648,561.242h-.007L795.8,525.485l-3.8-2.457-51.143-33.343-26.553-17.313V758.778l81.484,48.815V622.742l.007-.007,54.839,35.749.007.007v-.007l54.724-35.678V890.76H606.883a14.331,14.331,0,0,1-14.326-14.326V398.059a14.326,14.326,0,0,1,14.326-14.326h478.376A14.322,14.322,0,0,1,1099.584,398.059Z" transform="translate(-578.09 -373.36)" fill="#fff"/>
    </g>
  </g>
</svg>
