<svg xmlns="http://www.w3.org/2000/svg" width="34" height="34" viewBox="0 0 34 34">
  <g id="Tracking" transform="translate(0.004 1.447)">
    <rect id="icon" width="34" height="34" transform="translate(-0.004 -1.447)" fill="none"/>
    <path id="Path_6626" data-name="Path 6626" d="M8.412,9.588c0-1.428.009-2.856-.006-4.282A.856.856,0,0,1,8.89,4.46Q12.633,2.318,16.362.147a.845.845,0,0,1,.946,0q3.73,2.167,7.474,4.312a.894.894,0,0,1,.506.874q-.019,4.3,0,8.6a.868.868,0,0,1-.491.844q-3.713,2.123-7.41,4.277a.967.967,0,0,1-1.1-.008q-3.677-2.15-7.377-4.261a.881.881,0,0,1-.5-.874c.017-1.439.007-2.879.007-4.318ZM9.6,6.138a1.791,1.791,0,0,0-.025.2c0,2.408-.006,4.815.011,7.223a.579.579,0,0,0,.274.4q3.032,1.781,6.078,3.537c.089.052.185.09.306.149.008-.1.016-.154.016-.21,0-2.408,0-4.815-.01-7.223a.572.572,0,0,0-.257-.405c-2.034-1.19-4.077-2.365-6.119-3.542-.08-.046-.168-.079-.274-.129Zm7.823,11.506a1.2,1.2,0,0,0,.151-.054q3.169-1.834,6.341-3.663c.2-.116.2-.265.2-.451q0-3.5,0-7V6.11c-.126.062-.212.1-.291.146-.858.5-1.712,1-2.577,1.483a.437.437,0,0,0-.255.455c.012.81.011,1.621,0,2.431a.577.577,0,1,1-1.154.014c-.014-.447,0-.9,0-1.343v-.72c-.761.432-1.447.834-2.147,1.212a.467.467,0,0,0-.273.485c.009,1.826,0,3.654,0,5.48v1.891ZM14.259,2.708a.643.643,0,0,0,.086.091Q17.3,4.773,20.259,6.738a.48.48,0,0,0,.412-.009c.876-.486,1.742-.993,2.61-1.5a2.151,2.151,0,0,0,.187-.135c-.02-.036-.023-.051-.032-.055q-3.229-1.873-6.462-3.737a.314.314,0,0,0-.258-.009c-.821.462-1.634.936-2.458,1.41ZM10.206,5.052c.024.055.026.071.034.076Q13.468,7,16.7,8.855a.343.343,0,0,0,.29,0c.768-.43,1.528-.874,2.292-1.314-.023-.038-.029-.065-.046-.078q-2.983-1.991-5.972-3.975a.373.373,0,0,0-.319-.011c-.915.515-1.822,1.043-2.742,1.573Z"/>
    <path id="Path_6627" data-name="Path 6627" d="M7.419,28.309H14.57c0-.3,0-.588,0-.875.011-.509.207-.707.705-.708q1.488-.005,2.978,0c.521,0,.711.2.716.73,0,.275,0,.552,0,.848h7.16c0-.291,0-.587,0-.883.009-.5.2-.694.712-.7q1.488,0,2.978,0c.5,0,.7.2.705.7,0,.287,0,.575,0,.9h1.884c.29,0,.581,0,.871,0,.463,0,.719.212.717.582s-.257.577-.721.578c-.905,0-1.81,0-2.761,0,0,.34,0,.65,0,.961-.008.439-.207.649-.644.652q-1.542.012-3.086,0a.571.571,0,0,1-.654-.642c-.009-.312,0-.623,0-.951H18.966c0,.3,0,.6,0,.894-.006.5-.2.7-.707.7q-1.507.007-3.014,0c-.463,0-.663-.2-.677-.66-.01-.3,0-.6,0-.929H7.414c0,.295,0,.6,0,.912-.007.462-.205.674-.66.677q-1.542.01-3.086,0c-.433,0-.634-.21-.65-.652-.01-.3,0-.6,0-.961H1.994c-.436,0-.871,0-1.307,0S0,29.28,0,28.918s.245-.588.707-.59c.641,0,1.283,0,1.924,0h.388c0-.34-.009-.64,0-.94a.592.592,0,0,1,.683-.659q1.525-.005,3.05,0c.45,0,.656.217.664.674,0,.29,0,.579,0,.907ZM4.212,27.9v2.042H6.236V27.9Zm11.55,0v2.041h2.025V27.9H15.762Zm11.55,0v2.028h2.025V27.9H27.312Z"/>
    <path id="Path_6628" data-name="Path 6628" d="M16.85,23.874c.83-1.042,1.6-2.008,2.367-2.971a1.43,1.43,0,0,1,.334-.326.517.517,0,0,1,.667.077.525.525,0,0,1,.134.659,1.521,1.521,0,0,1-.181.27q-1.336,1.673-2.674,3.343c-.378.471-.683.486-1.113.059s-.875-.87-1.309-1.308a.6.6,0,0,1-.09-.893.576.576,0,0,1,.892.062c.324.324.631.665.972,1.028Z"/>
    <path id="Path_6629" data-name="Path 6629" d="M5.09,23.875c.84-1.053,1.625-2.049,2.428-3.031a.816.816,0,0,1,.488-.322.69.69,0,0,1,.532.271.742.742,0,0,1-.01.6,3.343,3.343,0,0,1-.479.634q-1.167,1.459-2.335,2.919c-.351.438-.672.461-1.063.072q-.7-.689-1.386-1.387a.584.584,0,1,1,.808-.826c.342.341.666.7,1.018,1.07Z"/>
  </g>
</svg>
